<?xml version="1.0" standalone="no"?><!DOCTYPE svg PUBLIC "-//W3C//DTD SVG 1.1//EN" "http://www.w3.org/Graphics/SVG/1.1/DTD/svg11.dtd"><svg t="1604204974684" class="icon" viewBox="0 0 1024 1024" version="1.1" xmlns="http://www.w3.org/2000/svg" p-id="4233" xmlns:xlink="http://www.w3.org/1999/xlink" width="200" height="200"><defs><style type="text/css"></style></defs><path d="M846.933333 420.266667h-661.333333c-8.533333 0-17.066667-6.4-19.2-14.933334-2.133333-8.533333 0-17.066667 6.4-23.466666l166.4-138.666667c8.533333-8.533333 23.466667-6.4 29.866667 2.133333 8.533333 8.533333 6.4 23.466667-2.133334 29.866667l-119.466666 100.266667h601.6c12.8 0 21.333333 8.533333 21.333333 21.333333s-10.666667 23.466667-23.466667 23.466667zM682.666667 797.866667c-6.4 0-12.8-2.133333-17.066667-8.533334-8.533333-8.533333-6.4-23.466667 2.133333-29.866666L789.333333 661.333333H185.6c-12.8 0-21.333333-8.533333-21.333333-21.333333s8.533333-21.333333 21.333333-21.333333h661.333333c8.533333 0 17.066667 6.4 19.2 14.933333 2.133333 8.533333 0 17.066667-6.4 23.466667l-166.4 138.666666c-2.133333 2.133333-6.4 2.133333-10.666666 2.133334z" fill="#17abe3" p-id="4234"></path></svg>