<?xml version="1.0" encoding="UTF-8"?>
<svg width="48px" height="48px" viewBox="0 0 48 48" version="1.1" xmlns="http://www.w3.org/2000/svg" xmlns:xlink="http://www.w3.org/1999/xlink">
    <!-- Generator: Sketch 55.2 (78181) - https://sketchapp.com -->
    <title>icon/状态/false</title>
    <desc>Created with Sketch.</desc>
    <g id="icon/状态/false" stroke="none" stroke-width="1" fill="none" fill-rule="evenodd">
        <g id="icon/状态/right">
            <circle id="椭圆形" fill="#E54A46" cx="24" cy="24" r="24"></circle>
            <path d="M20.7781746,20.4350288 L20.7781746,10.4350288 C20.7781746,8.77817459 22.1213203,7.43502884 23.7781746,7.43502884 C25.4350288,7.43502884 26.7781746,8.77817459 26.7781746,10.4350288 L26.7781746,20.4350288 L36.4350288,20.4350288 C38.0918831,20.4350288 39.4350288,21.7781746 39.4350288,23.4350288 C39.4350288,25.0918831 38.0918831,26.4350288 36.4350288,26.4350288 L26.7781746,26.4350288 L26.7781746,36.4350288 C26.7781746,38.0918831 25.4350288,39.4350288 23.7781746,39.4350288 C22.1213203,39.4350288 20.7781746,38.0918831 20.7781746,36.4350288 L20.7781746,26.4350288 L10.4350288,26.4350288 C8.77817459,26.4350288 7.43502884,25.0918831 7.43502884,23.4350288 C7.43502884,21.7781746 8.77817459,20.4350288 10.4350288,20.4350288 L20.7781746,20.4350288 Z" id="形状结合" fill="#FFFFFF" transform="translate(23.435029, 23.435029) rotate(-315.000000) translate(-23.435029, -23.435029) "></path>
        </g>
    </g>
</svg>